<svg width="66" height="22" viewBox="0 0 66 22" fill="none" xmlns="http://www.w3.org/2000/svg">
<path d="M27.9186 12.6863H0V21.9834H27.9186V12.6863Z" fill="#84B740"/>
<path d="M27.9186 0H0V9.30546H27.9186V0Z" fill="#259BD6"/>
<path d="M55.8372 20.0942L55.7129 20.119C55.2818 20.2019 55.1243 20.235 54.8093 20.235C54.0799 20.235 53.2178 19.8621 53.2178 18.1055C53.2178 17.2023 53.367 16.0008 54.7265 16.0008H54.7347C54.9668 16.0173 55.2321 16.0422 55.7295 16.1913L55.8372 16.2245V20.0942ZM56.061 11.3356L55.8372 11.377V14.6252L55.6383 14.5672L55.5803 14.5507C55.3564 14.4844 54.8425 14.3352 54.3451 14.3352C51.6262 14.3352 51.0543 16.3902 51.0543 18.1137C51.0543 20.4753 52.3806 21.8343 54.6933 21.8343C55.6714 21.8343 56.3926 21.7348 57.1221 21.4945C57.7935 21.2791 58.0339 20.9725 58.0339 20.3179V10.9959C57.3873 11.1119 56.7159 11.2279 56.061 11.3356Z" fill="#27292D"/>
<path d="M63.9194 20.1522L63.8033 20.1853L63.3888 20.293C62.9992 20.3925 62.6511 20.4505 62.3858 20.4505C61.7475 20.4505 61.3662 20.1356 61.3662 19.597C61.3662 19.249 61.5237 18.6606 62.5682 18.6606H63.9194V20.1522ZM62.9661 14.2938C62.1289 14.2938 61.2668 14.4429 60.1974 14.7744L59.5011 14.9815L59.7332 16.5559L60.413 16.3322C61.1258 16.1002 62.0128 15.951 62.676 15.951C62.9744 15.951 63.8862 15.951 63.8862 16.9371V17.368H62.6179C60.3052 17.368 59.2359 18.1055 59.2359 19.6881C59.2359 21.0388 60.2223 21.8509 61.8802 21.8509C62.3941 21.8509 63.107 21.7514 63.7204 21.6023L63.7536 21.594L63.7867 21.6023L63.994 21.6354C64.6405 21.7514 65.312 21.8674 65.9668 21.9917V16.8211C65.9668 15.1473 64.9555 14.2938 62.9661 14.2938Z" fill="#27292D"/>
<path d="M47.8131 20.1522L47.6971 20.1853L47.2826 20.293C46.893 20.3925 46.5531 20.4505 46.2796 20.4505C45.6413 20.4505 45.26 20.1356 45.26 19.597C45.26 19.249 45.4175 18.6606 46.4537 18.6606H47.8048L47.8131 20.1522ZM46.8681 14.2938C46.0226 14.2938 45.1688 14.4429 44.0995 14.7744L43.4032 14.9815L43.6353 16.5559L44.315 16.3322C45.0279 16.1002 45.9148 15.951 46.578 15.951C46.8764 15.951 47.7882 15.951 47.7882 16.9371V17.368H46.52C44.2072 17.368 43.1296 18.1055 43.1296 19.6881C43.1296 21.0388 44.116 21.8509 45.7822 21.8509C46.2962 21.8509 47.009 21.7514 47.6225 21.6023L47.6556 21.594L47.6888 21.6023L47.8877 21.6354C48.5426 21.7514 49.2057 21.8674 49.8606 22V16.8294C49.8689 15.139 48.8576 14.2938 46.8681 14.2938Z" fill="#27292D"/>
<path d="M39.0844 14.3104C38.0316 14.3104 37.1613 14.6584 36.838 14.8075L36.7551 14.849L36.6805 14.791C36.2328 14.4678 35.578 14.3021 34.6662 14.3021C33.8621 14.3021 33.1078 14.4181 32.2871 14.6584C31.5825 14.8738 31.309 15.2136 31.309 15.8516V21.7597H33.5139V16.2991L33.6217 16.2659C34.0693 16.1168 34.3346 16.0919 34.5915 16.0919C35.2298 16.0919 35.5531 16.4316 35.5531 17.0945V21.768H37.7249V17.0034C37.7249 16.7217 37.6669 16.5559 37.6586 16.5228L37.584 16.3819L37.7332 16.3156C38.0648 16.1665 38.4295 16.0919 38.8108 16.0919C39.2502 16.0919 39.7724 16.2659 39.7724 17.0945V21.768H41.9359V16.8791C41.9359 15.1473 41.0075 14.3104 39.0844 14.3104Z" fill="#27292D"/>
<path d="M62.2946 6.06554C61.9713 6.06554 61.4325 6.03239 61.0098 5.94953L60.8854 5.92467V2.73446C60.8854 2.4693 60.8357 2.30358 60.8274 2.27872L60.7611 2.14614L60.902 2.08814C60.9352 2.07156 60.9683 2.06328 61.0098 2.0467L61.0346 2.03013C61.0844 2.01356 61.1341 1.99699 61.1839 1.98041C61.2087 1.97213 61.2253 1.96384 61.2419 1.96384C61.731 1.83126 62.1786 1.84783 62.3775 1.83126H62.3858C63.737 1.83126 63.8945 3.03277 63.8945 3.93597C63.8862 5.69266 63.0158 6.06554 62.2946 6.06554ZM62.2863 0C62.2698 0 62.2449 0 62.2283 0C60.96 0 59.6586 0.348023 59.1944 1.0275C58.9457 1.35895 58.8048 1.77326 58.7965 2.26215V5.55179C58.7965 5.83352 58.7385 5.94124 58.7302 5.9661L58.6556 6.10697H54.6518V3.81996H54.6435C54.5938 1.40866 53.168 0.0828625 51.104 0.0828625H50.8636H49.0897C49.0068 0.671186 48.9404 1.0855 48.8576 1.67382H50.8636C51.9163 1.67382 52.4717 2.56874 52.4717 3.94426V6.24783L52.3308 6.17326C52.3059 6.16497 52.1319 6.10697 51.8583 6.10697H48.3933C48.327 6.54614 48.2441 7.11789 48.153 7.68964H58.8048C59.1695 7.61507 59.5923 7.54878 59.957 7.49077C60.4958 7.75593 61.4988 7.8968 62.1869 7.8968C64.4996 7.8968 66 6.34727 66 3.96083C65.9917 1.59925 64.5411 0.0497175 62.2863 0Z" fill="#27292D"/>
<path d="M43.6104 8.65913H43.7099C46.0226 8.65913 47.1002 7.8968 47.1002 6.01582C47.1002 4.66516 46.1138 3.58795 44.4559 3.58795H42.3255C41.6873 3.58795 41.3059 3.22335 41.3059 2.61017C41.3059 2.19586 41.4634 1.68211 42.5079 1.68211H47.1665C47.266 1.07721 47.3157 0.696047 47.4069 0.0911503H42.5659C40.3112 0.0911503 39.1756 1.03578 39.1756 2.61017C39.1756 4.16799 40.162 4.98004 41.8199 4.98004H43.9503C44.5885 4.98004 44.9698 5.4855 44.9698 6.01582C44.9698 6.36384 44.8123 7.08475 43.7762 7.08475H43.4197L36.5976 7.06817H35.3542C34.3014 7.06817 33.5637 6.47156 33.5637 5.08776V4.13484C33.5637 2.69303 34.1356 1.79812 35.3542 1.79812H37.3768C37.468 1.18494 37.526 0.795482 37.6089 0.215444H35.0889H34.8485C32.7845 0.215444 31.3587 1.59925 31.309 4.01055V4.1017V5.08776C31.3587 7.49906 32.7845 8.65085 34.8485 8.65085H35.0889H36.8628L40.5599 8.65913H42.7649H43.6104Z" fill="#27292D"/>
</svg>
